<svg preserveAspectRatio="none" width="100%" height="100%" overflow="visible" style="display: block;" viewBox="0 0 42 42" fill="none" xmlns="http://www.w3.org/2000/svg">
<g id="Group 15">
<circle id="Ellipse 14" cx="21" cy="21" r="21" fill="var(--fill-0, #2E241B)"/>
<g id="material-symbols:done-rounded">
<path id="Vector" d="M18.55 25.15L27.025 16.675C27.225 16.475 27.4583 16.375 27.725 16.375C27.9917 16.375 28.225 16.475 28.425 16.675C28.625 16.875 28.725 17.1127 28.725 17.388C28.725 17.6633 28.625 17.9007 28.425 18.1L19.25 27.3C19.05 27.5 18.8167 27.6 18.55 27.6C18.2833 27.6 18.05 27.5 17.85 27.3L13.55 23C13.35 22.8 13.254 22.5627 13.262 22.288C13.27 22.0133 13.3743 21.7757 13.575 21.575C13.7757 21.3743 14.0133 21.2743 14.288 21.275C14.5627 21.2757 14.8 21.3757 15 21.575L18.55 25.15Z" fill="var(--fill-0, #FFFBF3)"/>
</g>
</g>
</svg>
