<svg preserveAspectRatio="none" width="100%" height="100%" overflow="visible" style="display: block;" viewBox="0 0 46 46" fill="none" xmlns="http://www.w3.org/2000/svg">
<g id="material-symbols:image-outline-rounded">
<path id="Vector" d="M9.58333 40.25C8.52917 40.25 7.62706 39.875 6.877 39.1249C6.12694 38.3749 5.75128 37.4721 5.75 36.4167V9.58333C5.75 8.52917 6.12567 7.62706 6.877 6.877C7.62833 6.12694 8.53044 5.75128 9.58333 5.75H36.4167C37.4708 5.75 38.3736 6.12567 39.1249 6.877C39.8762 7.62833 40.2513 8.53044 40.25 9.58333V36.4167C40.25 37.4708 39.875 38.3736 39.1249 39.1249C38.3749 39.8762 37.4721 40.2513 36.4167 40.25H9.58333ZM9.58333 36.4167H36.4167V9.58333H9.58333V36.4167ZM13.4167 32.5833H32.5833C32.9667 32.5833 33.2542 32.4076 33.4458 32.0562C33.6375 31.7049 33.6056 31.3694 33.35 31.05L28.0792 24.0062C27.8875 23.7507 27.6319 23.6229 27.3125 23.6229C26.9931 23.6229 26.7375 23.7507 26.5458 24.0062L21.5625 30.6667L18.0167 25.9229C17.825 25.6674 17.5694 25.5396 17.25 25.5396C16.9306 25.5396 16.675 25.6674 16.4833 25.9229L12.65 31.05C12.3944 31.3694 12.3625 31.7049 12.5542 32.0562C12.7458 32.4076 13.0333 32.5833 13.4167 32.5833Z" fill="var(--fill-0, #2A2520)" stroke="var(--stroke-0, #FFFBF3)"/>
</g>
</svg>
