<svg preserveAspectRatio="none" width="100%" height="100%" overflow="visible" style="display: block;" viewBox="0 0 41.8333 45.5586" fill="none" xmlns="http://www.w3.org/2000/svg">
<g id="Group">
<path id="Vector" fill-rule="evenodd" clip-rule="evenodd" d="M22.1274 43.9017L22.1049 43.9058L21.96 43.9773L21.9191 43.9855L21.8905 43.9773L21.7456 43.9058C21.7238 43.899 21.7075 43.9024 21.6966 43.916L21.6884 43.9365L21.6537 44.8103L21.6639 44.8511L21.6843 44.8777L21.8967 45.0287L21.9273 45.0369L21.9518 45.0287L22.1641 44.8777L22.1886 44.845L22.1968 44.8103L22.1621 43.9385C22.1566 43.9167 22.1451 43.9045 22.1274 43.9017ZM22.6684 43.671L22.6419 43.6751L22.2642 43.865L22.2438 43.8854L22.2376 43.9079L22.2744 44.7858L22.2846 44.8103L22.3009 44.8246L22.7113 45.0145C22.7372 45.0213 22.7569 45.0158 22.7705 44.9981L22.7787 44.9695L22.7093 43.716C22.7024 43.6915 22.6888 43.6765 22.6684 43.671ZM21.2086 43.6751C21.1996 43.6697 21.1889 43.6679 21.1786 43.6702C21.1683 43.6725 21.1593 43.6786 21.1535 43.6874L21.1413 43.716L21.0718 44.9695C21.0732 44.994 21.0848 45.0104 21.1065 45.0185L21.1372 45.0145L21.5475 44.8246L21.568 44.8082L21.5761 44.7858L21.6108 43.9079L21.6047 43.8834L21.5843 43.863L21.2086 43.6751Z" stroke="var(--stroke-0, #FFFFFC)"/>
<path id="Vector_2" fill-rule="evenodd" clip-rule="evenodd" d="M20.9167 0.5C32.1928 0.5 41.3333 9.64054 41.3333 20.9167C41.3333 32.1928 32.1928 41.3333 20.9167 41.3333C9.64054 41.3333 0.5 32.1928 0.5 20.9167C0.5 9.64054 9.64054 0.5 20.9167 0.5ZM25.3124 27.0417H16.521L15.004 36.1475C16.8896 36.8778 18.8945 37.2517 20.9167 37.25C22.7419 37.25 24.4957 36.9499 26.1352 36.3986L26.8293 36.1475L25.3124 27.0417ZM20.9167 4.58333C17.4778 4.58274 14.1265 5.66754 11.3403 7.68316C8.55414 9.69878 6.47521 12.5424 5.39977 15.8087C4.32434 19.0751 4.30728 22.5975 5.35103 25.8741C6.39478 29.1507 8.44608 32.0143 11.2126 34.0568L12.4927 26.37C12.6017 25.7167 12.8679 25.0997 13.2684 24.5722C13.6689 24.0447 14.1917 23.6226 14.7917 23.3422V16.8456C14.7917 16.0657 15.2327 15.3511 15.9309 15.002L24.0567 10.939C24.3711 10.7817 24.7205 10.7074 25.0716 10.7231C25.4228 10.7388 25.7641 10.844 26.0632 11.0287C26.3623 11.2134 26.6091 11.4715 26.7804 11.7785C26.9517 12.0855 27.0416 12.4311 27.0417 12.7827V23.3422C27.6417 23.6226 28.1645 24.0447 28.565 24.5722C28.9655 25.0997 29.2317 25.7167 29.3406 26.37L30.6207 34.0568C33.3873 32.0143 35.4386 29.1507 36.4823 25.8741C37.526 22.5975 37.509 19.0751 36.4336 15.8087C35.3581 12.5424 33.2792 9.69878 30.493 7.68316C27.7068 5.66754 24.3555 4.58274 20.9167 4.58333ZM22.9583 16.0534L18.875 18.0951V22.9583H22.9583V16.0534Z" fill="var(--fill-0, #2A2520)" stroke="var(--stroke-0, #FFFFFC)"/>
</g>
</svg>
