<svg preserveAspectRatio="none" width="100%" height="100%" overflow="visible" style="display: block;" viewBox="0 0 32.9233 32.9233" fill="none" xmlns="http://www.w3.org/2000/svg">
<g id="qlementine-icons:pen-12" clip-path="url(#clip0_0_10)">
<path id="Vector" fill-rule="evenodd" clip-rule="evenodd" d="M22.1682 0.274361C22.6895 0.109744 23.2382 0.0274361 23.787 0.0274361L23.7595 0C24.3083 0 24.857 0.0823083 25.3783 0.246925C26.558 0.631031 27.3537 1.42668 28.506 2.57625L30.3442 4.41173C31.524 5.56404 32.2922 6.35695 32.6763 7.53944C33.0055 8.60945 33.0055 9.73159 32.6763 10.7769C32.2922 11.9567 31.4965 12.7496 30.3442 13.9046L15.3641 28.8847C15.0349 29.2414 14.7879 29.4883 14.4313 29.7353C14.1295 29.9547 13.8002 30.1468 13.4436 30.284C13.0624 30.4351 12.6685 30.5517 12.2666 30.6324L12.2391 30.6379L3.40469 32.8602C3.1852 32.9425 2.96571 32.9425 2.74622 32.9425C2.03288 32.9425 1.31954 32.6682 0.798256 32.1469C0.459886 31.8141 0.215648 31.3976 0.0903578 30.9398C-0.0349324 30.482 -0.0368094 29.9992 0.0849175 29.5405L2.30724 20.706L2.31273 20.6786C2.41973 20.2259 2.50204 19.8775 2.66391 19.4988C2.80109 19.1422 2.99314 18.8129 3.21263 18.5111C3.45956 18.1819 3.73392 17.9075 4.06315 17.5783L19.0405 2.60094C20.2203 1.42119 20.9885 0.658467 22.1682 0.274361ZM24.5552 2.87805C24.3065 2.80121 24.0472 2.76417 23.787 2.7683V2.79574C23.5126 2.79574 23.2657 2.82318 23.0188 2.90548C22.47 3.0701 21.9762 3.56395 20.9885 4.55165L19.2271 6.31305L26.6348 13.7208L28.4154 11.9429L28.6733 11.6768C29.4635 10.8674 29.886 10.434 30.0616 9.91267C30.2262 9.41882 30.2262 8.87009 30.0616 8.37624C29.897 7.82752 29.4031 7.33367 28.4154 6.34872L26.5772 4.51324L26.3138 4.25534C25.5017 3.46518 25.071 3.04266 24.5497 2.86982L24.5552 2.87805ZM24.7033 15.6633L17.2956 8.25553L6.04678 19.5318C5.94436 19.6452 5.85473 19.7403 5.77791 19.8171C5.54359 20.0399 5.35529 20.3065 5.2237 20.6018C5.17157 20.7033 5.14139 20.8267 5.10024 20.9941C5.07646 21.0984 5.04445 21.2227 5.00421 21.3672L2.78189 30.2017L11.6163 27.9793C12.0004 27.897 12.1925 27.8422 12.3845 27.7626C12.5491 27.6803 12.7138 27.598 12.8509 27.4882C13.0156 27.3785 13.1527 27.2413 13.4545 26.9395L24.7033 15.6907V15.6633Z" fill="var(--fill-0, #2A2520)"/>
</g>
<defs>
<clipPath id="clip0_0_10">
<rect width="32.9233" height="32.9233" fill="white"/>
</clipPath>
</defs>
</svg>
